#N canvas 645 77 552 452 12;
#X msg 71 152 send x;
#X obj 209 164 receive x;
#X floatatom 209 196 5 0 0 0 - - - 0;
#X obj 154 348 value x;
#X floatatom 154 283 5 0 0 0 - - - 0;
#X obj 116 307 bng 15 250 50 0 empty empty empty 17 7 0 10 #fcfcfc #000000 #000000;
#X floatatom 154 389 5 0 0 0 - - - 0;
#X msg 179 314 send y;
#X floatatom 307 196 5 0 0 0 - - - 0;
#X obj 307 164 receive y;
#X obj 288 300 list store 1 2 3;
#X msg 288 266 send z;
#X obj 288 349 receive z;
#X listbox 288 380 20 0 0 0 - - - 0;
#X floatatom 138 187 5 0 0 0 - - - 0;
#X obj 397 206 int 100;
#X msg 397 150 send x;
#X obj 71 215 float 10.5;
#X floatatom 443 180 5 0 0 0 - - - 0;
#X text 86 35 [float]、[int]、[value] 和 [list store]对象也可以通过发送（send）消息与接收 （receive）对象进行通信。//;
#X text 86 77 此外，[value]还可以从[send]对象，或者其他对象的发送消息中接收数值。// 如下例，左上角和右上角的send x都可以改变[value x]的值//;
#X text 86 485 *你可能会问，这么一个对象设计出来是干什么用的呢？ 欲知后事如何，请听下回分解//, f 46;
#X text 86 425 *这里有一个容易让人绕弯的点，send y信息的逻辑是： 把出口连接的对象中的值发送到名为y的对象。，也就是将 【[value x]发送到y，对x不做任何处理//, f 46;
#X connect 0 0 17 0;
#X connect 1 0 2 0;
#X connect 3 0 6 0;
#X connect 4 0 3 0;
#X connect 5 0 3 0;
#X connect 7 0 3 0;
#X connect 9 0 8 0;
#X connect 11 0 10 0;
#X connect 12 0 13 0;
#X connect 14 0 17 1;
#X connect 16 0 15 0;
#X connect 18 0 15 1;
